{"title":"Naruto Shippuuden - 365 [Hi10 720p] [ENG-SUBBED] [GWC].mp4","uid":10345251,"size":133175870,"categoryP":"video","categoryS":"tv_shows","magnet":"?xt=urn:btih:3fafea8481ffb9965a264e59052e212b83a04d21&amp;dn=Naruto+Shippuuden+-+365+%5BHi10+720p%5D+%5BENG-SUBBED%5D+%5BGWC%5D.mp4&amp;tr=udp%3A%2F%2Ftracker.openbittorrent.com%3A80&amp;tr=udp%3A%2F%2Fopen.demonii.com%3A1337&amp;tr=udp%3A%2F%2Ftracker.coppersurfer.tk%3A6969&amp;tr=udp%3A%2F%2Fexodus.desync.com%3A6969","seeders":1,"leechers":0,"uploader":"canc232","files":1,"time":1402596732,"description":"Naruto Shippuuden - 365 [Hi10 720p] [ENG-SUBBED] [GWC] \n\n\nSTORYLINE :\nNaruto Uzumaki, is a loud, hyperactive, adolescent ninja who constantly searches for approval and recognition, as well as to become Hokage, who is acknowledged as the leader and strongest of all ninja in the village.\n\n\n\nTHUMBNAIL IMAGE : &lt;a href=&quot;\nhttp://i.imgur.com/ulRecRE.jpg&quot; rel=&quot;nofollow&quot; target=&quot;_NEW&quot;&gt;\nhttp://i.imgur.com/ulRecRE.jpg&lt;/a&gt;\n\n\nMEDIA INFO :\nGeneral Format : MPEG-4 \nFormat profile : Base Media \nFile size : 127 MiB \nDuration : 20mn 9s \nOverall bit rate mode : Variable \nOverall bit rate : 881 Kbps \n\nVideo \nFormat : AVC \nFormat profile : High &lt;a class=&quot;__cf_email__&quot; href=&quot;/cdn-cgi/l/email-protection&quot; data-cfemail=&quot;e2d3d2a2aed6ccd3&quot;&gt;[email&amp;#160;protected]&lt;/a&gt;&lt;script cf-hash='f9e31' type=&quot;text/javascript&quot;&gt;\n/* &lt;![CDATA[ */!function(){try{var t=&quot;currentScript&quot;in document?document.currentScript:function(){for(var t=document.getElementsByTagName(&quot;script&quot;),e=t.length;e--;)if(t[e].getAttribute(&quot;cf-hash&quot;))return t[e]}();if(t&amp;&amp;t.previousSibling){var e,r,n,i,c=t.previousSibling,a=c.getAttribute(&quot;data-cfemail&quot;);if(a){for(e=&quot;&quot;,r=parseInt(a.substr(0,2),16),n=2;a.length-n;n+=2)i=parseInt(a.substr(n,2),16)^r,e+=String.fromCharCode(i);e=document.createTextNode(e),c.parentNode.replaceChild(e,c)}}}catch(u){}}();/* ]]&gt; */&lt;/script&gt; \nFormat settings, CABAC : Yes \nFormat settings, ReFrames : 10 frames \nDuration : 20mn 9s \nBit rate : 805 Kbps \nMaximum bit rate : 7 851 Kbps \nWidth : 1 280 pixels \nHeight : 720 pixels \nDisplay aspect ratio : 16:9 \nFrame rate mode : Variable \nFrame rate : 23.976 fps \nStream size : 116 MiB (91%) \nTitle : Naruto Shippuuden - 365 [Hi10 720p] [ENG-SUBBED] [GWC] \nLanguage : English \n\nAudio \nFormat : AAC \nFormat profile : HE-AAC / LC \nDuration : 20mn 9s \nBit rate mode : Variable \nChannel(s) : 2 channels \nSampling rate : 48.0 KHz / 24.0 KHz \nStream size : 10.3 MiB (8%) \nLanguage : Japanese \n\nText \nID : 3 \nTitle : [GWC] \nLanguage : English ","torrent":{"xt":"urn:btih:3fafea8481ffb9965a264e59052e212b83a04d21","amp;dn":"Naruto+Shippuuden+-+365+%5BHi10+720p%5D+%5BENG-SUBBED%5D+%5BGWC%5D.mp4","amp;tr":["udp%3A%2F%2Ftracker.openbittorrent.com%3A80","udp%3A%2F%2Fopen.demonii.com%3A1337","udp%3A%2F%2Ftracker.coppersurfer.tk%3A6969","udp%3A%2F%2Fexodus.desync.com%3A6969"],"infoHash":"3fafea8481ffb9965a264e59052e212b83a04d21","infoHashBuffer":{"type":"Buffer","data":[63,175,234,132,129,255,185,150,90,38,78,89,5,46,33,43,131,160,77,33]},"announce":[],"urlList":[]}}